<svg xmlns="http://www.w3.org/2000/svg" viewBox="0 0 80 80" width="80" height="80" fill="none" role="img" aria-label="BRANDOS Circular Seal Watermark">
  <circle cx="40" cy="40" r="37" stroke="#27272A" stroke-width="1.5"/>
  <circle cx="40" cy="40" r="33.5" stroke="#00F2FE" stroke-width="0.75" stroke-dasharray="2 3" opacity="0.6"/>
  <line x1="40" y1="0" x2="40" y2="5" stroke="#00F2FE" stroke-width="1.5"/>
  <line x1="40" y1="75" x2="40" y2="80" stroke="#00F2FE" stroke-width="1.5"/>
  <line x1="0" y1="40" x2="5" y2="40" stroke="#00F2FE" stroke-width="1.5"/>
  <line x1="75" y1="40" x2="80" y2="40" stroke="#00F2FE" stroke-width="1.5"/>
  <g transform="translate(17, 17) scale(0.72)">
    <rect x="12" y="12" width="7" height="40" rx="1.5" fill="#FAFAFA"/>
    <line x1="15.5" y1="16" x2="15.5" y2="48" stroke="#00F2FE" stroke-width="1.5" stroke-linecap="round"/>
    <path d="M 22.5 12 H 37 C 42.5 12 46.5 16 46.5 21.25 C 46.5 26.5 42.5 30.5 37 30.5 H 22.5 V 12 Z M 28.5 17.5 V 25 H 36 C 38.5 25 40.5 23.5 40.5 21.25 C 40.5 19 38.5 17.5 36 17.5 H 28.5 Z" fill="#FAFAFA"/>
    <path d="M 22.5 33.5 H 39 C 45.5 33.5 50.5 38 50.5 42.75 C 50.5 47.5 45.5 52 39 52 H 22.5 V 33.5 Z M 28.5 39 V 46.5 H 38.5 C 41.5 46.5 44 45 44 42.75 C 44 40.5 41.5 39 38.5 39 H 28.5 Z" fill="#FAFAFA"/>
    <circle cx="32" cy="32" r="2.5" fill="#00F2FE"/>
  </g>
</svg>